<?xml version="1.0" standalone="no"?><!DOCTYPE svg PUBLIC "-//W3C//DTD SVG 1.1//EN" "http://www.w3.org/Graphics/SVG/1.1/DTD/svg11.dtd"><svg t="1674974462982" class="icon" viewBox="0 0 1024 1024" version="1.1" xmlns="http://www.w3.org/2000/svg" p-id="6752" xmlns:xlink="http://www.w3.org/1999/xlink" width="200" height="200"><path d="M384 768l320 0 0-64L384 704 384 768zM384 512l320 0L704 448 384 448 384 512zM832 128 256 128C185.6 128 128 185.6 128 256l0 576c0 70.4 57.6 128 128 128l576 0c70.4 0 128-57.6 128-128L960 256C960 185.6 902.4 128 832 128zM768 544C768 561.92 753.92 576 736 576L384 576l0 64 352 0c17.92 0 32 14.08 32 32l0 128c0 17.92-14.08 32-32 32l-384 0C334.08 832 320 817.92 320 800l0-384C320 398.08 334.08 384 352 384l384 0C753.92 384 768 398.08 768 416L768 544zM832 352C832 369.92 817.92 384 800 384 782.08 384 768 369.92 768 352L768 320 320 320l0 32C320 369.92 305.92 384 288 384S256 369.92 256 352l0-64C256 270.08 270.08 256 288 256L512 256 512 224C512 206.08 526.08 192 544 192 561.92 192 576 206.08 576 224L576 256l224 0C817.92 256 832 270.08 832 288L832 352z" p-id="6753" fill="#67C23A"></path></svg>