<?xml version="1.0" standalone="no"?><!DOCTYPE svg PUBLIC "-//W3C//DTD SVG 1.1//EN" "http://www.w3.org/Graphics/SVG/1.1/DTD/svg11.dtd"><svg t="1663732259269" class="icon" viewBox="0 0 1024 1024" version="1.1" xmlns="http://www.w3.org/2000/svg" p-id="2252" xmlns:xlink="http://www.w3.org/1999/xlink" width="200" height="200"><path d="M420.693333 896a46.506667 46.506667 0 0 1-11.093333 0 42.666667 42.666667 0 0 1-30.293333-52.48l183.04-682.666667a42.666667 42.666667 0 1 1 82.346666 22.186667l-183.04 682.666667a42.666667 42.666667 0 0 1-40.96 30.293333zM256 725.333333a42.666667 42.666667 0 0 1-30.293333-12.373333L85.333333 572.16a85.333333 85.333333 0 0 1 0-120.32l140.373334-140.8a42.666667 42.666667 0 1 1 60.586666 60.586667L145.493333 512l140.8 140.373333a42.666667 42.666667 0 0 1 0 60.586667A42.666667 42.666667 0 0 1 256 725.333333zM768 725.333333a42.666667 42.666667 0 0 1-30.293333-12.373333 42.666667 42.666667 0 0 1 0-60.586667l140.8-140.373333-140.8-140.373333a42.666667 42.666667 0 1 1 60.586666-60.586667l140.373334 140.8a85.333333 85.333333 0 0 1 0 120.32l-140.373334 140.8A42.666667 42.666667 0 0 1 768 725.333333z" p-id="2253" fill="#409eff"></path></svg>