<?xml version="1.0" standalone="no"?><!DOCTYPE svg PUBLIC "-//W3C//DTD SVG 1.1//EN" "http://www.w3.org/Graphics/SVG/1.1/DTD/svg11.dtd"><svg t="1681124687657" class="icon" viewBox="0 0 1024 1024" version="1.1" xmlns="http://www.w3.org/2000/svg" p-id="1870" xmlns:xlink="http://www.w3.org/1999/xlink" width="200" height="200"><path d="M148 641.7c0 136.1 72.6 261.9 190.5 330 117.9 68.1 263.1 68.1 381 0S910 777.9 910 641.7c0-136.1-72.6-261.9-190.5-330-117.9-68.1-263.1-68.1-381 0C220.6 379.8 148 505.6 148 641.7z m0 0" fill="#EDEDED" p-id="1871"></path><path d="M391.6 208.7v190.5H251.8L529 711l277.1-311.8H667.6V208.7h-276z m0 0" fill="#E1F5FE" p-id="1872" data-spm-anchor-id="a313x.7781069.0.i11" class="selected"></path><path d="M529 737L213.4 381.9h161V191.4h310.5v190.5h159.8L529 737zM290.7 416.9l238.3 268 238.3-268.1h-117V226H409v190.5l-118.3 0.4z m0 0" fill="#03A9F4" p-id="1873" data-spm-anchor-id="a313x.7781069.0.i7" class=""></path><path d="M391.6 52.8h275.9v86.6H391.6z" fill="#E1F5FE" p-id="1874" data-spm-anchor-id="a313x.7781069.0.i12" class="selected"></path><path d="M684.8 156.8H374.3V35.5h310.5v121.3zM409 122.1h241.3V70H409v52.1z m0 0" fill="#03A9F4" p-id="1875" data-spm-anchor-id="a313x.7781069.0.i10" class=""></path><path d="M910 745.6v173.2H148V745.6h103.9v69.2h554.2v-69.2H910z m0 0" fill="#FFFFFF" p-id="1876"></path><path d="M927.4 936.1H130.6V728.2h138.6v69.2h519.6v-69.2h138.6v207.9z m-762.2-34.7h727.4V763.2h-69.2v69.2H234.6v-69.2h-69.2l-0.2 138.2z m0 0" fill="#03A9F4" p-id="1877" data-spm-anchor-id="a313x.7781069.0.i8" class=""></path><path d="M96 364.6h34.6v155.8H96V364.6zM754.2 0.9h34.6V278h-34.6V0.9zM96 295.3h34.6V330H96v-34.7z m0-69.3h34.6v34.6H96V226z m0 0" fill="#BCC0C4" p-id="1878"></path></svg>